<?xml version="1.0" encoding="utf-8"?>
<!-- Generator: Adobe Illustrator 16.0.3, SVG Export Plug-In . SVG Version: 6.00 Build 0)  -->
<!DOCTYPE svg PUBLIC "-//W3C//DTD SVG 1.1//EN" "http://www.w3.org/Graphics/SVG/1.1/DTD/svg11.dtd">
<svg version="1.1" id="Capa_1" xmlns="http://www.w3.org/2000/svg" xmlns:xlink="http://www.w3.org/1999/xlink" x="0px" y="0px"
	 width="254.917px" height="99.333px" viewBox="0 0 254.917 99.333" enable-background="new 0 0 254.917 99.333"
	 xml:space="preserve">
<g>
	<path fill="#FFFFFF" d="M18.149,42.619h-2.627v8.485h2.627c0.694,0,1.278-0.238,1.76-0.687c0.481-0.447,0.716-0.988,0.716-1.623
		v-3.87c0-0.697-0.228-1.253-0.672-1.668C19.507,42.824,18.899,42.619,18.149,42.619z"/>
	<path fill="#FFFFFF" d="M87.545,42.215c-0.693,0-1.284,0.224-1.771,0.654c-0.491,0.443-0.739,0.989-0.739,1.623v14.511
		c0,0.632,0.249,1.168,0.739,1.613c0.486,0.448,1.079,0.664,1.771,0.664c0.694,0,1.287-0.216,1.762-0.664
		c0.48-0.445,0.72-0.98,0.72-1.613V44.493c0-0.634-0.24-1.18-0.72-1.623C88.833,42.439,88.24,42.215,87.545,42.215z"/>
	<path fill="#FFFFFF" d="M98.109,44.274C95.085,18.612,72.145,0.229,46.866,3.212C21.582,6.188,3.54,29.41,6.564,55.056
		c3.021,25.667,25.964,44.038,51.248,41.067C83.086,93.145,101.139,69.938,98.109,44.274z M24.86,48.709
		c0,1.75-0.665,3.236-1.999,4.482c-1.324,1.238-2.935,1.858-4.821,1.858h-2.518v9.988h-4.365V38.531h6.869
		c2.126,0,3.816,0.624,5.073,1.85c1.175,1.167,1.761,2.66,1.761,4.479V48.709z M42.036,59.087c0,1.774-0.677,3.273-2.031,4.48
		c-1.351,1.237-2.983,1.82-4.902,1.82c-1.916,0-3.542-0.585-4.874-1.835c-1.342-1.227-2.005-2.729-2.005-4.466V38.531h4.267v20.521
		c0,0.604,0.241,1.151,0.732,1.604c0.496,0.448,1.088,0.679,1.771,0.679c0.697,0,1.286-0.23,1.77-0.679
		c0.482-0.452,0.724-1,0.724-1.604V38.531h4.548V59.087z M60.849,65.039h-4.668l-6.008-16.964v16.964h-4.358V38.531h4.898
		l5.775,17.817V38.531h4.362V65.039z M77.864,42.534h-4.617v22.505h-4.362V42.534h-4.628v-4.003h13.607V42.534z M94.587,59.015
		c0,1.792-0.686,3.278-2.03,4.521c-1.359,1.234-2.994,1.851-4.899,1.851c-1.917,0-3.541-0.626-4.881-1.856
		c-1.337-1.251-2.01-2.734-2.01-4.518V44.561c0-1.758,0.677-3.263,2.034-4.495c1.347-1.238,2.972-1.854,4.853-1.854
		c1.917,0,3.555,0.62,4.913,1.862c1.339,1.239,2.021,2.735,2.021,4.487V59.015z"/>
</g>
<path fill="#FFFFFF" d="M110.155,38.531c2.126,0,3.815,0.624,5.074,1.85c1.179,1.167,1.748,2.66,1.748,4.479v3.85
	c0,1.75-0.655,3.236-1.979,4.482c-1.332,1.238-2.94,1.858-4.834,1.858h-2.519v9.988h-4.37V38.531H110.155z M112.757,44.924
	c0-0.697-0.224-1.253-0.677-1.668c-0.447-0.433-1.053-0.638-1.807-0.638h-2.629v8.485h2.629c0.697,0,1.282-0.238,1.76-0.687
	c0.485-0.447,0.724-0.988,0.724-1.623V44.924z"/>
<path fill="#FFFFFF" d="M123.174,58.959l-1.054,6.078h-4.538l4.895-26.508h6.004l4.845,26.508h-4.573l-1.014-6.078H123.174z
	 M125.456,44.606l-1.612,10.456h3.221L125.456,44.606z"/>
<path fill="#FFFFFF" d="M150.019,58.461c0.027,1.871-0.501,3.442-1.597,4.738c-0.692,0.906-1.685,1.529-2.976,1.882
	c-0.707,0.199-1.513,0.307-2.438,0.307c-1.685,0-3.117-0.379-4.23-1.166c-0.918-0.636-1.685-1.507-2.238-2.594
	c-0.553-1.089-0.856-2.353-0.948-3.769l4.134-0.264c0.2,1.548,0.65,2.654,1.361,3.331c0.523,0.536,1.107,0.79,1.793,0.767
	c0.947-0.044,1.712-0.456,2.28-1.315c0.295-0.395,0.436-0.969,0.436-1.741c0-1.109-0.525-2.211-1.632-3.296
	c-0.867-0.748-2.153-1.862-3.88-3.366c-1.458-1.28-2.47-2.416-3.081-3.44c-0.611-1.15-0.948-2.384-0.948-3.724
	c0-2.413,0.881-4.242,2.654-5.479c1.081-0.755,2.441-1.121,4.083-1.121c1.519,0,2.855,0.318,3.972,0.952
	c0.868,0.499,1.547,1.187,2.078,2.085c0.528,0.878,0.847,1.896,0.983,3.06l-4.207,0.694c-0.12-1.091-0.456-1.93-1.004-2.542
	c-0.422-0.433-0.983-0.658-1.734-0.658c-0.798,0-1.414,0.324-1.819,0.974c-0.352,0.524-0.52,1.176-0.52,1.949
	c0,1.224,0.577,2.441,1.718,3.708c0.439,0.469,1.082,1.041,1.931,1.686c1.008,0.797,1.669,1.308,2.014,1.633
	c1.07,0.989,1.907,1.957,2.481,2.93c0.277,0.442,0.509,0.849,0.683,1.218C149.773,56.86,150,57.717,150.019,58.461z"/>
<path fill="#FFFFFF" d="M157.541,42.534h-4.646v-4.003h13.622v4.003h-4.61v22.505h-4.365V42.534L157.541,42.534z"/>
<path fill="#FFFFFF" d="M169.934,65.039V38.531h12.417v4.003h-8.063V49.8h5.885v3.992h-5.885v7.272h8.063v3.975L169.934,65.039
	L169.934,65.039z"/>
<path fill="#FFFFFF" d="M197.153,65.039h-11.89V38.531h4.343V61.08h7.547V65.039z"/>
<path fill="#FFFFFF" d="M200.037,65.039V38.531h12.425v4.003h-8.071V49.8h5.885v3.992h-5.885v7.272h8.071v3.975L200.037,65.039
	L200.037,65.039z"/>
<path fill="#FFFFFF" d="M222.214,38.531c2.445,0,4.218,0.624,5.345,1.85c1.015,1.072,1.516,2.564,1.516,4.479v3.85
	c0,1.88-0.775,3.45-2.323,4.766l3.227,11.564h-4.709l-2.656-9.999c-0.128,0.01-0.255,0.012-0.399,0.012h-2.496v9.987h-4.37V38.531
	H222.214z M224.819,44.924c0-1.538-0.815-2.306-2.476-2.306h-2.626v8.485h2.626c0.693,0,1.273-0.238,1.758-0.687
	c0.479-0.447,0.718-0.988,0.718-1.623V44.924z"/>
<path fill="#FFFFFF" d="M239.76,38.212c1.919,0,3.56,0.62,4.917,1.862c1.349,1.239,2.016,2.735,2.016,4.487v14.454
	c0,1.792-0.67,3.278-2.019,4.521c-1.369,1.234-3.001,1.851-4.914,1.851c-1.905,0-3.534-0.626-4.882-1.856
	c-1.325-1.251-1.998-2.734-1.998-4.518V44.561c0-1.758,0.676-3.263,2.028-4.495C236.254,38.828,237.875,38.212,239.76,38.212z
	 M242.133,44.493c0-0.634-0.242-1.18-0.722-1.623c-0.477-0.431-1.066-0.654-1.761-0.654c-0.685,0-1.281,0.224-1.775,0.654
	c-0.483,0.443-0.725,0.989-0.725,1.623v14.511c0,0.632,0.241,1.168,0.725,1.613c0.494,0.448,1.091,0.664,1.775,0.664
	c0.694,0,1.283-0.216,1.761-0.664c0.479-0.445,0.722-0.98,0.722-1.613V44.493z"/>
</svg>
