<?xml version="1.0" encoding="utf-8"?>
<!-- Generator: Adobe Illustrator 16.0.3, SVG Export Plug-In . SVG Version: 6.00 Build 0)  -->
<!DOCTYPE svg PUBLIC "-//W3C//DTD SVG 1.1//EN" "http://www.w3.org/Graphics/SVG/1.1/DTD/svg11.dtd">
<svg version="1.1" id="Capa_1" xmlns="http://www.w3.org/2000/svg" xmlns:xlink="http://www.w3.org/1999/xlink" x="0px" y="0px"
	 width="72px" height="54px" viewBox="0 0 72 54" enable-background="new 0 0 72 54" xml:space="preserve">
<g>
	<path fill-rule="evenodd" clip-rule="evenodd" fill="#FFFFFF" d="M35.966,4.641c9.655,0,19.31,0,28.965,0
		c1.868,0,2.708,0.834,2.708,2.691c0.001,13.217,0.001,26.435,0,39.652c0,1.816-0.846,2.655-2.674,2.655
		c-19.217,0.001-38.434,0.001-57.651,0c-1.823,0-2.673-0.845-2.673-2.655c0-13.241-0.007-26.482,0.021-39.723
		c0.001-0.625,0.206-1.304,0.503-1.857c0.29-0.539,0.875-0.774,1.554-0.773C16.468,4.645,26.217,4.641,35.966,4.641z M9.19,11.22
		c0,11.374,0,22.629,0,33.865c18.009,0,35.967,0,53.91,0c0-10.634,0-21.211,0-31.866c-0.259,0.151-0.458,0.261-0.651,0.381
		c-8.17,5.039-16.347,10.065-24.499,15.133c-1.289,0.801-2.399,0.75-3.621-0.102c-5.82-4.06-11.663-8.087-17.499-12.125
		C14.311,14.762,11.791,13.019,9.19,11.22z M14.171,9.17c0.313,0.232,0.479,0.361,0.652,0.48c6.92,4.808,13.844,9.611,20.754,14.433
		c0.428,0.298,0.71,0.311,1.163,0.031c7.866-4.854,15.746-9.685,23.621-14.522c0.181-0.111,0.35-0.239,0.613-0.421
		C45.335,9.17,29.839,9.17,14.171,9.17z"/>
</g>
</svg>
