<?xml version="1.0" encoding="utf-8"?>
<!-- Generator: Adobe Illustrator 16.0.3, SVG Export Plug-In . SVG Version: 6.00 Build 0)  -->
<!DOCTYPE svg PUBLIC "-//W3C//DTD SVG 1.1//EN" "http://www.w3.org/Graphics/SVG/1.1/DTD/svg11.dtd">
<svg version="1.1" id="Capa_1" xmlns="http://www.w3.org/2000/svg" xmlns:xlink="http://www.w3.org/1999/xlink" x="0px" y="0px"
	 width="128px" height="128px" viewBox="0 0 128 128" enable-background="new 0 0 128 128" xml:space="preserve">
<path fill-rule="evenodd" clip-rule="evenodd" fill="#0D9E16" d="M1.231,59.255c0.083-0.992,0.165-1.983,0.248-2.976
	c0.143-0.995,0.286-1.991,0.429-2.986c0.193-0.994,0.387-1.988,0.58-2.982c0.245-0.992,0.49-1.985,0.735-2.977
	c0.651-1.988,1.301-3.975,1.952-5.963c0.411-0.991,0.821-1.981,1.231-2.972c0.151-0.173,0.251-0.369,0.272-0.601
	c0.354-0.733,0.709-1.466,1.063-2.2c0.577-1.057,1.154-2.113,1.731-3.17c0.042-0.027,0.057-0.064,0.047-0.113
	c0.595-0.953,1.191-1.905,1.787-2.858c0.399-0.584,0.797-1.169,1.196-1.754c0.358-0.365,0.643-0.782,0.896-1.223
	c1.581-1.979,3.191-3.931,4.916-5.787c0.046-0.053,0.092-0.105,0.138-0.158c1.014-0.981,2.027-1.963,3.041-2.944
	c1.907-1.642,3.859-3.229,5.889-4.719c0.549-0.382,1.097-0.765,1.646-1.147c0.479-0.244,0.952-0.497,1.352-0.864
	c2.07-1.195,4.165-2.346,6.295-3.432c0.384-0.161,0.769-0.32,1.152-0.482c1.536-0.647,3.071-1.296,4.607-1.944
	c1.03-0.159,1.969-0.624,2.969-0.882c1.696-0.438,3.386-0.896,5.079-1.346c0.313,0.03,0.605-0.052,0.892-0.163
	c1.001-0.161,2.003-0.321,3.004-0.481c0.987-0.129,1.974-0.258,2.961-0.387c0.994-0.063,1.987-0.125,2.98-0.188
	c1.041-0.016,2.082-0.031,3.124-0.046c0.995,0.019,1.99,0.037,2.986,0.056c0.989,0.071,1.979,0.142,2.968,0.213
	c0.998,0.126,1.995,0.252,2.992,0.379c0.991,0.165,1.982,0.329,2.974,0.493c1.987,0.494,3.975,0.987,5.962,1.48
	c0.993,0.333,1.987,0.667,2.98,1.001c2.001,0.813,4.016,1.591,5.967,2.522c0.742,0.364,1.485,0.729,2.229,1.094
	c0.341,0.303,0.76,0.471,1.165,0.662c0.998,0.598,1.995,1.197,2.993,1.795c0.202,0.123,0.403,0.245,0.605,0.368
	c0.732,0.506,1.465,1.011,2.197,1.517c2.648,2.008,5.223,4.104,7.586,6.449c2.187,2.171,4.162,4.524,6.072,6.936
	c0.476,0.657,0.95,1.314,1.426,1.971c0.222,0.336,0.443,0.673,0.665,1.009c1.23,1.95,2.377,3.949,3.494,5.966
	c0.882,1.988,1.765,3.976,2.646,5.964c0.357,0.993,0.714,1.986,1.071,2.98c0.541,1.986,1.082,3.972,1.623,5.958
	c0.185,0.989,0.369,1.978,0.554,2.966c1.11,6.957,1.105,13.913-0.011,20.868c-0.191,0.986-0.382,1.973-0.573,2.959
	c-0.542,1.985-1.084,3.971-1.626,5.955c-0.357,0.996-0.716,1.992-1.073,2.988c-0.816,2.014-1.713,3.991-2.65,5.95
	c-1.095,2.038-2.281,4.021-3.495,5.989c-0.258,0.268-0.454,0.575-0.608,0.911c-0.453,0.632-0.906,1.263-1.36,1.895
	c-1.791,2.241-3.604,4.463-5.624,6.508c-2.459,2.49-5.132,4.729-7.926,6.83c-0.748,0.521-1.496,1.042-2.244,1.563
	c-0.31,0.196-0.619,0.393-0.929,0.59c-0.928,0.557-1.855,1.113-2.782,1.671c-0.476,0.198-0.938,0.42-1.341,0.75
	c-0.733,0.269-1.407,0.659-2.088,1.035c-1.988,0.839-3.977,1.678-5.964,2.517c-0.991,0.318-1.982,0.637-2.973,0.956
	c-0.995,0.282-1.99,0.564-2.984,0.847c-0.895,0.199-1.788,0.398-2.683,0.599c-0.1,0.013-0.2,0.026-0.3,0.04
	c-0.994,0.182-1.988,0.362-2.981,0.543c-0.993,0.115-1.986,0.229-2.979,0.344c-0.995,0.079-1.991,0.157-2.987,0.236
	c-0.99,0.018-1.981,0.036-2.972,0.054c-1.042-0.013-2.083-0.024-3.125-0.037c-0.995-0.078-1.991-0.156-2.986-0.234
	c-0.992-0.114-1.984-0.228-2.976-0.342c-0.992-0.167-1.983-0.335-2.974-0.502c-0.188-0.106-0.393-0.117-0.602-0.104
	c-0.796-0.187-1.593-0.373-2.389-0.559c-0.991-0.265-1.982-0.529-2.973-0.793c-0.996-0.333-1.992-0.666-2.987-0.999
	c-2.015-0.738-3.979-1.603-5.948-2.452c-2.069-1.07-4.112-2.186-6.122-3.364c-0.3-0.271-0.64-0.479-1.013-0.634
	c-0.654-0.446-1.308-0.892-1.961-1.337c-2.011-1.504-3.971-3.071-5.87-4.713c-1.011-0.975-2.022-1.949-3.034-2.923
	c-1.738-1.932-3.448-3.887-5.038-5.944c-0.309-0.417-0.618-0.833-0.928-1.25c-0.391-0.575-0.782-1.15-1.173-1.725
	c-0.562-0.889-1.124-1.775-1.685-2.663c-0.054-0.098-0.107-0.195-0.16-0.293c-0.545-0.994-1.091-1.988-1.637-2.982
	c-0.441-0.914-0.883-1.829-1.325-2.743c-0.029-0.084-0.058-0.169-0.086-0.253c-0.421-0.988-0.842-1.978-1.263-2.966
	c-0.65-1.986-1.301-3.972-1.952-5.958c-0.247-0.993-0.494-1.986-0.74-2.979c-0.136-1.006-0.326-2.001-0.582-2.983
	c-0.128-0.991-0.257-1.983-0.386-2.975c-0.1-0.995-0.2-1.99-0.299-2.985C1.061,65.213,1.047,62.234,1.231,59.255z M23.677,103.581
	c0.433-0.124,0.694-0.19,0.951-0.272c6.561-2.104,13.122-4.207,19.678-6.325c0.554-0.179,1.022-0.175,1.558,0.104
	c7.105,3.705,14.632,5.18,22.61,4.205c6.257-0.765,12.176-2.619,17.271-6.363c12.476-9.166,18.564-21.36,16.738-37.009
	c-1.1-9.418-5.081-17.461-12.175-23.847c-8.616-7.756-18.736-11.182-30.275-10.084c-8.29,0.789-15.606,3.991-21.834,9.574
	c-7.896,7.078-12.252,15.928-13.022,26.483c-0.568,7.8,1.16,15.13,5.044,21.932c0.324,0.567,0.369,1.063,0.158,1.681
	c-1.494,4.36-2.958,8.731-4.427,13.1C25.206,98.982,24.467,101.21,23.677,103.581z"/>
<path fill-rule="evenodd" clip-rule="evenodd" fill="#FCFDFC" d="M23.677,103.581c0.791-2.371,1.529-4.599,2.276-6.823
	c1.469-4.368,2.933-8.739,4.427-13.1c0.211-0.618,0.167-1.113-0.158-1.681c-3.884-6.802-5.612-14.132-5.044-21.932
	c0.77-10.555,5.126-19.405,13.022-26.483c6.228-5.583,13.544-8.785,21.834-9.574c11.539-1.098,21.659,2.329,30.275,10.084
	c7.094,6.386,11.075,14.429,12.175,23.847c1.826,15.648-4.263,27.843-16.738,37.009c-5.096,3.744-11.015,5.599-17.271,6.363
	c-7.979,0.975-15.505-0.5-22.61-4.205c-0.536-0.279-1.004-0.283-1.558-0.104c-6.556,2.118-13.118,4.221-19.678,6.325
	C24.371,103.391,24.11,103.457,23.677,103.581z M33.813,93.693c3.833-1.226,7.614-2.419,11.38-3.655
	c0.65-0.214,1.152-0.165,1.738,0.194c6.85,4.205,14.26,5.694,22.199,4.454c18.336-2.866,30.577-20.979,26.466-39.131
	c-4.439-19.598-25.411-30.612-43.933-22.828C40.058,37.604,33.4,46.605,31.774,59.075c-1.037,7.954,0.962,15.317,5.497,21.955
	c0.331,0.484,0.388,0.891,0.198,1.439c-1.172,3.397-2.315,6.805-3.459,10.212C33.911,92.975,33.725,93.259,33.813,93.693z"/>
<path fill-rule="evenodd" clip-rule="evenodd" fill="#0D9E16" d="M33.813,93.693c-0.088-0.435,0.098-0.719,0.196-1.013
	c1.144-3.407,2.287-6.814,3.459-10.212c0.19-0.549,0.132-0.955-0.198-1.439c-4.534-6.638-6.534-14.001-5.497-21.955
	c1.626-12.47,8.284-21.47,19.889-26.347c18.522-7.785,39.494,3.229,43.933,22.828c4.111,18.153-8.13,36.265-26.466,39.131
	c-7.939,1.24-15.349-0.249-22.199-4.454c-0.586-0.359-1.088-0.408-1.738-0.194C41.427,91.274,37.646,92.468,33.813,93.693z
	 M74.441,82.104c0.422-0.024,0.847-0.021,1.263-0.078c0.49-0.067,0.988-0.141,1.457-0.291c5.281-1.696,6.594-3.799,6.989-8.013
	c0.07-0.75-0.202-1.235-0.844-1.575c-2.627-1.395-5.209-2.88-7.921-4.109c-1.033-0.469-1.389-0.376-2.135,0.483
	c-1.025,1.182-2.052,2.361-3.088,3.532c-0.755,0.853-1.114,0.909-2.15,0.454c-5.654-2.483-9.94-6.458-12.945-11.837
	c-0.796-1.426-0.779-1.658,0.379-2.837c0.836-0.851,1.659-1.707,2.252-2.76c0.38-0.674,0.444-1.328,0.154-2.061
	c-0.619-1.567-1.185-3.156-1.786-4.73c-0.442-1.157-0.82-2.337-1.36-3.457c-0.344-0.713-0.874-1.036-1.646-1.047
	c-0.545-0.008-1.093-0.037-1.635-0.094c-1.13-0.119-2.102,0.207-2.943,0.965c-3.281,2.96-4.455,6.639-3.728,10.958
	c0.42,2.496,1.611,4.668,2.88,6.81c2.937,4.956,6.521,9.352,11.019,12.989c3.086,2.495,6.716,3.896,10.354,5.289
	C70.762,81.369,72.483,82.198,74.441,82.104z"/>
<path fill-rule="evenodd" clip-rule="evenodd" fill="#FCFDFC" d="M74.441,82.104c-1.958,0.094-3.68-0.735-5.435-1.408
	c-3.638-1.393-7.268-2.794-10.354-5.289c-4.498-3.637-8.083-8.033-11.019-12.989c-1.269-2.141-2.46-4.314-2.88-6.81
	c-0.728-4.32,0.446-7.998,3.728-10.958c0.841-0.758,1.813-1.084,2.943-0.965c0.542,0.057,1.09,0.086,1.635,0.094
	c0.773,0.011,1.302,0.334,1.646,1.047c0.541,1.12,0.918,2.3,1.36,3.457c0.601,1.574,1.167,3.163,1.786,4.73
	c0.29,0.733,0.226,1.386-0.154,2.061c-0.593,1.053-1.416,1.909-2.252,2.76c-1.158,1.18-1.175,1.412-0.379,2.837
	c3.005,5.379,7.291,9.354,12.945,11.837c1.036,0.455,1.396,0.398,2.15-0.454c1.036-1.171,2.063-2.351,3.088-3.532
	c0.746-0.859,1.102-0.952,2.135-0.483c2.712,1.229,5.294,2.715,7.921,4.109c0.642,0.34,0.914,0.825,0.844,1.575
	c-0.396,4.214-1.708,6.316-6.989,8.013c-0.469,0.15-0.967,0.224-1.457,0.291C75.288,82.083,74.863,82.08,74.441,82.104z"/>
</svg>
